<svg width="40" height="40" viewBox="0 0 40 40" fill="none" xmlns="http://www.w3.org/2000/svg">
<path d="M20 40C14.4444 40 9.72222 38.0556 5.83333 34.1667C1.94444 30.2778 0 25.5556 0 20C0 14.4444 1.94444 9.72222 5.83333 5.83333C9.72222 1.94444 14.4444 0 20 0C20.2963 0 20.6111 0.00925926 20.9444 0.0277778C21.2778 0.0462963 21.7037 0.0740741 22.2222 0.111111C20.8889 1.2963 19.8519 2.75926 19.1111 4.5C18.3704 6.24074 18 8.07407 18 10C18 13.3333 19.1667 16.1667 21.5 18.5C23.8333 20.8333 26.6667 22 30 22C31.9259 22 33.7593 21.6574 35.5 20.9722C37.2407 20.287 38.7037 19.3333 39.8889 18.1111C39.9259 18.5556 39.9537 18.9167 39.9722 19.1944C39.9907 19.4722 40 19.7407 40 20C40 25.5556 38.0556 30.2778 34.1667 34.1667C30.2778 38.0556 25.5556 40 20 40ZM20 36.6667C24.037 36.6667 27.5556 35.4167 30.5556 32.9167C33.5556 30.4167 35.4259 27.4815 36.1667 24.1111C35.2407 24.5185 34.2469 24.8241 33.1852 25.0278C32.1235 25.2315 31.0617 25.3333 30 25.3333C25.7523 25.3333 22.1348 23.8397 19.1475 20.8525C16.1603 17.8652 14.6667 14.2477 14.6667 10C14.6667 9.11111 14.7593 8.15741 14.9444 7.13889C15.1296 6.12037 15.463 4.96296 15.9444 3.66667C12.3148 4.66667 9.30556 6.69444 6.91667 9.75C4.52778 12.8056 3.33333 16.2222 3.33333 20C3.33333 24.6296 4.9537 28.5648 8.19444 31.8056C11.4352 35.0463 15.3704 36.6667 20 36.6667Z" fill="#5F6368"/>
</svg>
