<svg width="40" height="40" viewBox="0 0 40 40" fill="none" xmlns="http://www.w3.org/2000/svg">
  <path d="M19.99 26.364c1.764 0 3.268-.618 4.51-1.853 1.242-1.236 1.864-2.736 1.864-4.5 0-1.765-.618-3.269-1.853-4.511-1.236-1.242-2.736-1.864-4.5-1.864-1.765 0-3.269.618-4.511 1.853-1.242 1.236-1.864 2.736-1.864 4.5 0 1.765.618 3.269 1.853 4.511 1.236 1.242 2.736 1.864 4.5 1.864ZM20 29.09c-2.515 0-4.66-.887-6.432-2.66-1.772-1.77-2.658-3.914-2.658-6.43s.886-4.66 2.66-6.432c1.77-1.772 3.914-2.658 6.43-2.658s4.66.886 6.432 2.66c1.773 1.77 2.658 3.914 2.658 6.43s-.887 4.66-2.66 6.432c-1.77 1.773-3.914 2.658-6.43 2.658ZM1.364 21.364c-.387 0-.71-.132-.972-.395A1.331 1.331 0 0 1 0 19.992a1.33 1.33 0 0 1 1.364-1.356h4.545c.386 0 .71.132.972.395.261.263.392.588.392.977s-.13.712-.392.97a1.33 1.33 0 0 1-.972.386H1.364Zm32.727 0c-.386 0-.71-.132-.972-.395a1.331 1.331 0 0 1-.392-.977 1.33 1.33 0 0 1 1.364-1.356h4.545c.387 0 .71.132.972.395.261.263.392.588.392.977s-.13.712-.392.97a1.33 1.33 0 0 1-.972.386h-4.545ZM19.992 7.273a1.33 1.33 0 0 1-1.356-1.364V1.364c0-.387.132-.71.395-.972.263-.261.588-.392.977-.392s.712.13.97.392c.257.261.386.585.386.972v4.545c0 .386-.132.71-.395.972a1.331 1.331 0 0 1-.977.392Zm0 32.727a1.33 1.33 0 0 1-1.356-1.364v-4.545c0-.386.132-.71.395-.972.263-.261.588-.392.977-.392s.712.131.97.392c.257.262.386.586.386.972v4.545c0 .387-.132.71-.395.972a1.332 1.332 0 0 1-.977.392ZM9.091 11 6.5 8.455a1.282 1.282 0 0 1-.392-.982c.011-.382.14-.708.387-.978.27-.27.596-.404.978-.404.381 0 .709.136.982.409L11 9.09a1.4 1.4 0 0 1 .364.956c0 .363-.122.674-.364.931-.242.258-.553.387-.932.387s-.704-.122-.977-.364Zm22.455 22.5L29 30.91a1.414 1.414 0 0 1-.364-.973c0-.375.13-.687.387-.937.257-.273.568-.41.931-.41.364 0 .682.137.955.41l2.591 2.546c.273.272.404.6.392.981-.011.382-.14.708-.387.978-.27.27-.596.404-.978.404a1.34 1.34 0 0 1-.982-.409ZM29 11a1.308 1.308 0 0 1-.41-.954c0-.364.137-.682.41-.955L31.546 6.5c.272-.273.6-.403.981-.392.382.011.708.14.978.387.27.27.404.596.404.978 0 .381-.136.709-.409.982L30.91 11c-.243.242-.552.364-.927.364A1.46 1.46 0 0 1 29 11ZM6.495 33.505a1.331 1.331 0 0 1-.404-.978c0-.382.136-.709.409-.982L9.09 29c.268-.273.584-.41.95-.41.368 0 .681.137.942.41.285.273.427.59.427.954s-.136.682-.409.955L8.455 33.5c-.273.273-.6.404-.982.392a1.462 1.462 0 0 1-.978-.387Z" fill="#5F6368"/>
</svg>
