<svg width="40" height="40" viewBox="0 0 40 40" fill="none" xmlns="http://www.w3.org/2000/svg">
<path d="M3.33333 18.3333C2.44444 18.3333 1.66667 18 1 17.3333C0.333333 16.6667 0 15.8889 0 15V3.33333C0 2.44444 0.333333 1.66667 1 1C1.66667 0.333333 2.44444 0 3.33333 0H36.6667C37.5556 0 38.3333 0.333333 39 1C39.6667 1.66667 40 2.44444 40 3.33333V15C40 15.8889 39.6667 16.6667 39 17.3333C38.3333 18 37.5556 18.3333 36.6667 18.3333H3.33333ZM3.33333 15H36.6667V3.33333H3.33333V15ZM3.33333 40C2.44444 40 1.66667 39.6667 1 39C0.333333 38.3333 0 37.5556 0 36.6667V25C0 24.1111 0.333333 23.3333 1 22.6667C1.66667 22 2.44444 21.6667 3.33333 21.6667H36.6667C37.5556 21.6667 38.3333 22 39 22.6667C39.6667 23.3333 40 24.1111 40 25V36.6667C40 37.5556 39.6667 38.3333 39 39C38.3333 39.6667 37.5556 40 36.6667 40H3.33333ZM3.33333 36.6667H36.6667V25H3.33333V36.6667Z" fill="#5F6368"/>
</svg>
