<svg width="36" height="36" viewBox="0 0 36 36" fill="none" xmlns="http://www.w3.org/2000/svg">
<path d="M3 36C2.2 36 1.5 35.7 0.9 35.1C0.3 34.5 0 33.8 0 33V6.85C0 6.35 0.05 5.925 0.15 5.575C0.25 5.225 0.433333 4.9 0.7 4.6L3.5 0.8C3.76667 0.5 4.075 0.291667 4.425 0.175C4.775 0.0583333 5.18977 0 5.6693 0H30.3307C30.8102 0 31.2167 0.0583333 31.55 0.175C31.8833 0.291667 32.1833 0.5 32.45 0.8L35.3 4.6C35.5667 4.9 35.75 5.225 35.85 5.575C35.95 5.925 36 6.35 36 6.85V33C36 33.8 35.7 34.5 35.1 35.1C34.5 35.7 33.8 36 33 36H3ZM3.85 5.3H32.1L30.2796 3H5.65L3.85 5.3ZM3 8.3V33H33V8.3H3ZM16.5 28.5H19.5V18.45L23.8 22.75L25.8 20.75L18 12.95L10.2 20.75L12.2 22.75L16.5 18.45V28.5Z" fill="#5F6368"/>
</svg>
