<svg width="17" height="23" viewBox="0 0 17 23" fill="none" xmlns="http://www.w3.org/2000/svg">
<path d="M5.125 21.625C5.125 22.2438 5.63125 22.75 6.25 22.75H10.75C11.3688 22.75 11.875 22.2438 11.875 21.625V20.5H5.125V21.625ZM8.5 0.25C4.1575 0.25 0.625 3.7825 0.625 8.125C0.625 10.8025 1.96375 13.1537 4 14.5825V17.125C4 17.7438 4.50625 18.25 5.125 18.25H11.875C12.4938 18.25 13 17.7438 13 17.125V14.5825C15.0362 13.1537 16.375 10.8025 16.375 8.125C16.375 3.7825 12.8425 0.25 8.5 0.25ZM11.7063 12.7375L10.75 13.4125V16H6.25V13.4125L5.29375 12.7375C4.54843 12.2208 3.93918 11.5314 3.518 10.7283C3.09682 9.92507 2.87621 9.03191 2.875 8.125C2.875 5.02 5.395 2.5 8.5 2.5C11.605 2.5 14.125 5.02 14.125 8.125C14.125 9.95875 13.225 11.68 11.7063 12.7375Z" fill="#5F6368"/>
</svg>
