<svg width="40" height="56" viewBox="0 0 40 56" fill="none" xmlns="http://www.w3.org/2000/svg">
<rect x="8.42856" y="28.6842" width="23.1429" height="0.877193" fill="white"/>
<line y1="-0.5" x2="3.67933" y2="-0.5" transform="matrix(0.698885 0.715234 -0.698885 0.715234 8.42856 29.5614)" stroke="white"/>
<line y1="-0.5" x2="4.33661" y2="-0.5" transform="matrix(0.695442 0.718582 -0.702314 0.711868 8.20633 29.7577)" stroke="white"/>
<rect x="8.5" y="28.8158" width="23" height="13.7719" fill="white" stroke="#D9D9D9" stroke-width="5"/>
<path d="M20 38.2018C29.7192 38.2018 37.5 30.1548 37.5 20.3509C37.5 10.5469 29.7192 2.5 20 2.5C10.2808 2.5 2.5 10.5469 2.5 20.3509C2.5 30.1548 10.2808 38.2018 20 38.2018Z" fill="white" stroke="#D9D9D9" stroke-width="5"/>
<rect x="11" y="32.193" width="18" height="7.89474" fill="white"/>
<path d="M27 50.114H13C11.6193 50.114 10.5 51.2333 10.5 52.614V53C10.5 54.3807 11.6193 55.5 13 55.5H27C28.3807 55.5 29.5 54.3807 29.5 53V52.614C29.5 51.2333 28.3807 50.114 27 50.114Z" fill="#D9D9D9" stroke="#D9D9D9"/>
<rect x="10.1429" y="49.7368" width="2.57143" height="2.63158" fill="#D9D9D9"/>
<rect x="27.2857" y="49.7368" width="2.57143" height="2.63158" fill="#D9D9D9"/>
</svg>
